M48
;Layer_Color=9474304
;FILE_FORMAT=2:5
INCH,LZ
;TYPE=PLATED
T3F00S00C0.02756
T4F00S00C0.03000
T5F00S00C0.03150
T6F00S00C0.03543
T7F00S00C0.03937
;TYPE=NON_PLATED
T1F00S00C0.03543
T2F00S00C0.09843
%
T03
X022774Y0152516
X021074Y0168016
Y0178016
X019399
Y0168016
X017724
Y0178016
X014974Y0152516
X013424Y0128516
Y0108831
X014274Y0089516
X016874Y0105516
T04
X013174Y0053516
X014174
T05
X008674Y0130516
X009674
X010674
X019124Y0101516
Y0091516
T06
X0231339Y0086693
X0241339
Y0096693
X0231339
Y0106693
X0241339
Y0116693
X0231339
Y0126693
X0241339
T07
X0088382Y015422
X0106098
X0122882
X0140598
Y0179811
X0122882
X0106098
X0088382
T01
X0049362Y0098032
Y0115354
T02
X0042618Y0037795
X0237894Y0174409
M30
