G04 Layer_Color=2752767*
%FSLAX25Y25*%
%MOIN*%
G70*
G01*
G75*
%ADD38C,0.00200*%
%ADD39C,0.00267*%
D38*
X176440Y177216D02*
Y178816D01*
X178040D01*
Y177216D01*
X176440D01*
Y167216D02*
Y168816D01*
X178040D01*
Y167216D01*
X176440D01*
X193190Y177216D02*
Y178816D01*
X194790D01*
Y177216D01*
X193190D01*
Y167216D02*
Y168816D01*
X194790D01*
Y167216D01*
X193190D01*
X209940D02*
Y168816D01*
X211540D01*
Y167216D01*
X209940D01*
Y177216D02*
Y178816D01*
X211540D01*
Y177216D01*
X209940D01*
X133440Y108031D02*
Y109631D01*
X135040D01*
Y108031D01*
X133440D01*
Y127716D02*
Y129316D01*
X135040D01*
Y127716D01*
X133440D01*
X131740Y52716D02*
X130940Y54316D01*
X132540D01*
X131740Y52716D01*
X141740D02*
X140940Y54316D01*
X142540D01*
X141740Y52716D01*
X140598Y179011D02*
X140998Y179411D01*
X141398D01*
X140998Y179811D01*
X141398Y180211D01*
X140998D01*
X140598Y180611D01*
X140198Y180211D01*
X139798D01*
X140198Y179811D01*
X139798Y179411D01*
X140198D01*
X140598Y179011D01*
Y153420D02*
X140998Y153821D01*
X141398D01*
X140998Y154220D01*
X141398Y154621D01*
X140998D01*
X140598Y155020D01*
X140198Y154621D01*
X139798D01*
X140198Y154220D01*
X139798Y153821D01*
X140198D01*
X140598Y153420D01*
X122882Y179011D02*
X123282Y179411D01*
X123682D01*
X123282Y179811D01*
X123682Y180211D01*
X123282D01*
X122882Y180611D01*
X122482Y180211D01*
X122082D01*
X122482Y179811D01*
X122082Y179411D01*
X122482D01*
X122882Y179011D01*
Y153420D02*
X123282Y153821D01*
X123682D01*
X123282Y154220D01*
X123682Y154621D01*
X123282D01*
X122882Y155020D01*
X122482Y154621D01*
X122082D01*
X122482Y154220D01*
X122082Y153821D01*
X122482D01*
X122882Y153420D01*
X106098Y179011D02*
X106498Y179411D01*
X106898D01*
X106498Y179811D01*
X106898Y180211D01*
X106498D01*
X106098Y180611D01*
X105698Y180211D01*
X105298D01*
X105698Y179811D01*
X105298Y179411D01*
X105698D01*
X106098Y179011D01*
Y153420D02*
X106498Y153821D01*
X106898D01*
X106498Y154220D01*
X106898Y154621D01*
X106498D01*
X106098Y155020D01*
X105698Y154621D01*
X105298D01*
X105698Y154220D01*
X105298Y153821D01*
X105698D01*
X106098Y153420D01*
X88382Y179011D02*
X88782Y179411D01*
X89182D01*
X88782Y179811D01*
X89182Y180211D01*
X88782D01*
X88382Y180611D01*
X87982Y180211D01*
X87582D01*
X87982Y179811D01*
X87582Y179411D01*
X87982D01*
X88382Y179011D01*
Y153420D02*
X88782Y153821D01*
X89182D01*
X88782Y154220D01*
X89182Y154621D01*
X88782D01*
X88382Y155020D01*
X87982Y154621D01*
X87582D01*
X87982Y154220D01*
X87582Y153821D01*
X87982D01*
X88382Y153420D01*
X105940Y129716D02*
X106340Y130516D01*
X105940Y131316D01*
X106740Y130916D01*
X107540Y131316D01*
X107140Y130516D01*
X107540Y129716D01*
X106740Y130116D01*
X105940Y129716D01*
X95940D02*
X96340Y130516D01*
X95940Y131316D01*
X96740Y130916D01*
X97540Y131316D01*
X97140Y130516D01*
X97540Y129716D01*
X96740Y130116D01*
X95940Y129716D01*
X85940D02*
X86340Y130516D01*
X85940Y131316D01*
X86740Y130916D01*
X87540Y131316D01*
X87140Y130516D01*
X87540Y129716D01*
X86740Y130116D01*
X85940Y129716D01*
X237494Y174009D02*
Y173609D01*
X238294D01*
Y174009D01*
X238694D01*
Y174809D01*
X238294D01*
Y175209D01*
X237494D01*
Y174809D01*
X237094D01*
Y174009D01*
X237494D01*
X42218Y37395D02*
Y36995D01*
X43018D01*
Y37395D01*
X43418D01*
Y38195D01*
X43018D01*
Y38595D01*
X42218D01*
Y38195D01*
X41818D01*
Y37395D01*
X42218D01*
X230539Y125893D02*
X230939D01*
X231339Y126293D01*
X231739Y125893D01*
X232139D01*
Y126293D01*
X231739Y126693D01*
X232139Y127093D01*
Y127493D01*
X231739D01*
X231339Y127093D01*
X230939Y127493D01*
X230539D01*
Y127093D01*
X230939Y126693D01*
X230539Y126293D01*
Y125893D01*
X240539D02*
X240939D01*
X241339Y126293D01*
X241739Y125893D01*
X242139D01*
Y126293D01*
X241739Y126693D01*
X242139Y127093D01*
Y127493D01*
X241739D01*
X241339Y127093D01*
X240939Y127493D01*
X240539D01*
Y127093D01*
X240939Y126693D01*
X240539Y126293D01*
Y125893D01*
X230539Y115893D02*
X230939D01*
X231339Y116293D01*
X231739Y115893D01*
X232139D01*
Y116293D01*
X231739Y116693D01*
X232139Y117093D01*
Y117493D01*
X231739D01*
X231339Y117093D01*
X230939Y117493D01*
X230539D01*
Y117093D01*
X230939Y116693D01*
X230539Y116293D01*
Y115893D01*
X240539D02*
X240939D01*
X241339Y116293D01*
X241739Y115893D01*
X242139D01*
Y116293D01*
X241739Y116693D01*
X242139Y117093D01*
Y117493D01*
X241739D01*
X241339Y117093D01*
X240939Y117493D01*
X240539D01*
Y117093D01*
X240939Y116693D01*
X240539Y116293D01*
Y115893D01*
X230539Y105893D02*
X230939D01*
X231339Y106293D01*
X231739Y105893D01*
X232139D01*
Y106293D01*
X231739Y106693D01*
X232139Y107093D01*
Y107493D01*
X231739D01*
X231339Y107093D01*
X230939Y107493D01*
X230539D01*
Y107093D01*
X230939Y106693D01*
X230539Y106293D01*
Y105893D01*
X240539D02*
X240939D01*
X241339Y106293D01*
X241739Y105893D01*
X242139D01*
Y106293D01*
X241739Y106693D01*
X242139Y107093D01*
Y107493D01*
X241739D01*
X241339Y107093D01*
X240939Y107493D01*
X240539D01*
Y107093D01*
X240939Y106693D01*
X240539Y106293D01*
Y105893D01*
X230539Y95893D02*
X230939D01*
X231339Y96293D01*
X231739Y95893D01*
X232139D01*
Y96293D01*
X231739Y96693D01*
X232139Y97093D01*
Y97493D01*
X231739D01*
X231339Y97093D01*
X230939Y97493D01*
X230539D01*
Y97093D01*
X230939Y96693D01*
X230539Y96293D01*
Y95893D01*
X240539D02*
X240939D01*
X241339Y96293D01*
X241739Y95893D01*
X242139D01*
Y96293D01*
X241739Y96693D01*
X242139Y97093D01*
Y97493D01*
X241739D01*
X241339Y97093D01*
X240939Y97493D01*
X240539D01*
Y97093D01*
X240939Y96693D01*
X240539Y96293D01*
Y95893D01*
X230539Y85893D02*
X230939D01*
X231339Y86293D01*
X231739Y85893D01*
X232139D01*
Y86293D01*
X231739Y86693D01*
X232139Y87093D01*
Y87493D01*
X231739D01*
X231339Y87093D01*
X230939Y87493D01*
X230539D01*
Y87093D01*
X230939Y86693D01*
X230539Y86293D01*
Y85893D01*
X240539D02*
X240939D01*
X241339Y86293D01*
X241739Y85893D01*
X242139D01*
Y86293D01*
X241739Y86693D01*
X242139Y87093D01*
Y87493D01*
X241739D01*
X241339Y87093D01*
X240939Y87493D01*
X240539D01*
Y87093D01*
X240939Y86693D01*
X240539Y86293D01*
Y85893D01*
X190440Y100716D02*
X190840Y101516D01*
X190440Y102316D01*
X191240Y101916D01*
X192040Y102316D01*
X191640Y101516D01*
X192040Y100716D01*
X191240Y101116D01*
X190440Y100716D01*
Y90716D02*
X190840Y91516D01*
X190440Y92316D01*
X191240Y91916D01*
X192040Y92316D01*
X191640Y91516D01*
X192040Y90716D01*
X191240Y91116D01*
X190440Y90716D01*
X148940Y151716D02*
Y153316D01*
X150540D01*
Y151716D01*
X148940D01*
X226940D02*
Y153316D01*
X228540D01*
Y151716D01*
X226940D01*
X141940Y88716D02*
Y90316D01*
X143540D01*
Y88716D01*
X141940D01*
X167940Y104716D02*
Y106316D01*
X169540D01*
Y104716D01*
X167940D01*
D39*
X50162Y115354D02*
G03*
X50162Y115354I-800J0D01*
G01*
Y98032D02*
G03*
X50162Y98032I-800J0D01*
G01*
M02*
