G04 Layer_Physical_Order=2*
G04 Layer_Color=66047*
%FSLAX25Y25*%
%MOIN*%
G70*
G01*
G75*
%ADD10R,0.06496X0.04724*%
%ADD11R,0.04724X0.06496*%
%ADD12R,0.05315X0.04528*%
%ADD13R,0.04528X0.05315*%
%ADD14R,0.02362X0.07874*%
%ADD15O,0.02362X0.07874*%
%ADD16R,0.09842X0.07874*%
%ADD17R,0.09055X0.01968*%
%ADD18R,0.02362X0.06299*%
%ADD19O,0.02362X0.06299*%
%ADD20R,0.06890X0.04724*%
%ADD21R,0.02362X0.03543*%
%ADD22R,0.08465X0.12795*%
%ADD23R,0.08465X0.03937*%
%ADD24C,0.01181*%
%ADD25R,0.06000X0.06000*%
%ADD26C,0.06000*%
%ADD27C,0.06299*%
%ADD28C,0.02362*%
%ADD29C,0.07874*%
%ADD30R,0.06299X0.06299*%
%ADD31C,0.09449*%
%ADD32R,0.07874X0.07874*%
%ADD33R,0.07087X0.07087*%
%ADD34C,0.07087*%
%ADD35C,0.05512*%
G36*
X162549Y92347D02*
X163240Y92209D01*
X172605D01*
X172887Y91866D01*
Y87142D01*
X173009Y86527D01*
X173357Y86006D01*
X173878Y85658D01*
X174492Y85536D01*
X175863D01*
Y83211D01*
X175319Y82797D01*
X173796Y82200D01*
X173658Y82279D01*
X173043Y82401D01*
X168516D01*
X167901Y82279D01*
X167380Y81931D01*
X167032Y81410D01*
X167010Y81300D01*
X165115Y81138D01*
X164793Y81184D01*
X164619Y81445D01*
X164288Y81666D01*
X163898Y81744D01*
X161740D01*
Y78461D01*
X160740D01*
Y81744D01*
X158583D01*
X158193Y81666D01*
X157862Y81445D01*
X157641Y81115D01*
X157563Y80724D01*
X155417D01*
X155340Y81115D01*
X155119Y81445D01*
X154788Y81666D01*
X154398Y81744D01*
X153547D01*
Y85122D01*
X154988D01*
X155378Y85200D01*
X155709Y85421D01*
X155930Y85752D01*
X156008Y86142D01*
Y88004D01*
X151740D01*
Y89004D01*
X156008D01*
Y90551D01*
X159843D01*
X162003Y92712D01*
X162549Y92347D01*
D02*
G37*
G36*
X235879Y156842D02*
Y144106D01*
X234240Y143144D01*
X232602Y144106D01*
Y149461D01*
X232464Y150152D01*
X232073Y150738D01*
X231803Y151007D01*
X231959Y151385D01*
X232108Y152516D01*
X231959Y153646D01*
X231523Y154700D01*
X230829Y155604D01*
X229924Y156299D01*
X228871Y156735D01*
X227740Y156884D01*
X226610Y156735D01*
X225556Y156299D01*
X224652Y155604D01*
X223957Y154700D01*
X223521Y153646D01*
X223372Y152516D01*
X223521Y151385D01*
X223957Y150332D01*
X224652Y149427D01*
X225556Y148733D01*
X226610Y148296D01*
X227740Y148148D01*
X228989Y146128D01*
Y142779D01*
X228532D01*
X227917Y142657D01*
X227396Y142309D01*
X227263Y142110D01*
X225599Y141592D01*
X224824Y141487D01*
X224506Y141805D01*
X223920Y142196D01*
X223228Y142334D01*
X222094D01*
Y142890D01*
X221972Y143504D01*
X221624Y144025D01*
X221103Y144373D01*
X220488Y144495D01*
X214173D01*
Y144882D01*
X212768Y146287D01*
X213597Y148287D01*
X213898D01*
X214288Y148365D01*
X214619Y148586D01*
X214840Y148917D01*
X214917Y149307D01*
Y151071D01*
X211240D01*
Y152071D01*
X214917D01*
Y153835D01*
X214840Y154225D01*
X215033Y155061D01*
X215381Y155582D01*
X215503Y156197D01*
Y160724D01*
X215381Y161339D01*
X215162Y161666D01*
X215023Y161988D01*
X214902Y163538D01*
X215102Y164220D01*
X215224Y164401D01*
X215346Y165016D01*
Y171016D01*
X215224Y171630D01*
X214876Y172151D01*
X214715Y174400D01*
X215119Y174957D01*
X217582Y175139D01*
X235879Y156842D01*
D02*
G37*
G36*
X208434Y95712D02*
Y93016D01*
X208571Y92325D01*
X208963Y91738D01*
X215286Y85416D01*
X215872Y85024D01*
X216563Y84887D01*
X226121D01*
X226524Y83913D01*
X227408Y82762D01*
X225951Y81283D01*
X225878Y81332D01*
X225488Y81409D01*
X222740D01*
Y78028D01*
X221740D01*
Y81409D01*
X218992D01*
X218602Y81332D01*
X218271Y81111D01*
X218178Y80971D01*
X216220Y80456D01*
X215840Y80470D01*
X210073Y86238D01*
X209487Y86629D01*
X208795Y86767D01*
X205417D01*
Y87224D01*
X205340Y87615D01*
X205119Y87945D01*
X204788Y88166D01*
X204398Y88244D01*
X202240D01*
Y84961D01*
X201740D01*
Y84461D01*
X198063D01*
Y82697D01*
X198141Y82307D01*
X197947Y81470D01*
X197599Y80949D01*
X197477Y80335D01*
Y79877D01*
X186531D01*
Y86814D01*
X186540Y86823D01*
X188696Y87741D01*
X188949Y87547D01*
X190054Y87089D01*
X190740Y86999D01*
Y91516D01*
X191740D01*
Y86999D01*
X192426Y87089D01*
X193531Y87547D01*
X194481Y88275D01*
X195785Y88361D01*
X198063Y86083D01*
Y85461D01*
X201240D01*
Y88244D01*
X201011D01*
X196711Y92544D01*
X196878Y93566D01*
X197492Y94709D01*
X198882D01*
X199573Y94847D01*
X200159Y95239D01*
X202429Y97509D01*
X207090D01*
X208434Y95712D01*
D02*
G37*
G36*
X251444Y122083D02*
X250264Y121462D01*
X249278Y121308D01*
X246305Y124281D01*
X246708Y125254D01*
X246898Y126693D01*
X246708Y128132D01*
X246153Y129473D01*
X245270Y130624D01*
X244118Y131508D01*
X243145Y131911D01*
Y134862D01*
X243007Y135554D01*
X242616Y136140D01*
X241554Y137201D01*
Y141173D01*
X241432Y141788D01*
X241084Y142309D01*
X240563Y142657D01*
X239949Y142779D01*
X239491D01*
Y157591D01*
X239354Y158282D01*
X238962Y158868D01*
X218537Y179293D01*
X217951Y179685D01*
X217260Y179822D01*
X214944D01*
X214736Y180323D01*
X214003Y181279D01*
X213047Y182012D01*
X211934Y182473D01*
X210740Y182630D01*
X209546Y182473D01*
X208433Y182012D01*
X207477Y181279D01*
X206744Y180323D01*
X206283Y179210D01*
X206126Y178016D01*
X206283Y176821D01*
X206744Y175709D01*
X207477Y174753D01*
X207541Y174704D01*
X207543Y174680D01*
X207148Y172617D01*
X206982Y172403D01*
X206605Y172151D01*
X206257Y171630D01*
X206135Y171016D01*
Y165016D01*
X206257Y164401D01*
X206605Y163880D01*
X207115Y162656D01*
X207099Y161339D01*
X206977Y160724D01*
Y156483D01*
X205305Y155065D01*
X204408Y155277D01*
X203464Y155762D01*
Y155772D01*
X203295Y156623D01*
X202813Y157344D01*
X202091Y157826D01*
X201740Y157896D01*
Y153016D01*
X200740D01*
Y157896D01*
X200389Y157826D01*
X200030Y157689D01*
X198419Y158363D01*
X198047Y158667D01*
Y160016D01*
X197909Y160707D01*
X197518Y161293D01*
X196889Y161921D01*
X196778Y162317D01*
X197103Y164638D01*
X197253Y164753D01*
X197986Y165709D01*
X198447Y166822D01*
X198604Y168016D01*
X198447Y169210D01*
X197986Y170323D01*
X197253Y171279D01*
X197189Y171327D01*
X197187Y171352D01*
X197582Y173415D01*
X197748Y173628D01*
X198126Y173880D01*
X198474Y174401D01*
X198596Y175016D01*
Y181016D01*
X198474Y181630D01*
X198126Y182151D01*
X197605Y182499D01*
X196990Y182621D01*
X190990D01*
X189684Y183001D01*
X188848Y183609D01*
X188718Y183797D01*
X188619Y183945D01*
X188288Y184166D01*
X187898Y184244D01*
X185740D01*
Y180961D01*
X184740D01*
Y184244D01*
X182583D01*
X182193Y184166D01*
X181862Y183945D01*
X181641Y183615D01*
X181272Y183092D01*
X180240Y182621D01*
X174240D01*
X174083Y182590D01*
X172948Y182922D01*
X171867Y183598D01*
X171795Y183682D01*
X171619Y183945D01*
X171288Y184166D01*
X170898Y184244D01*
X168740D01*
Y180961D01*
X168240D01*
Y180461D01*
X164563D01*
Y178697D01*
X164641Y178307D01*
X164447Y177470D01*
X164099Y176949D01*
X163977Y176335D01*
Y171807D01*
X164099Y171193D01*
X164447Y170672D01*
X164968Y170324D01*
X165583Y170201D01*
X170898D01*
X171377Y169949D01*
X172319Y169090D01*
X172692Y168519D01*
X172626Y168016D01*
X172696Y167483D01*
X172626Y167197D01*
X171711Y165934D01*
X171038Y165377D01*
X160433D01*
X154003Y171807D01*
Y175335D01*
X153881Y175949D01*
X153559Y176516D01*
X153881Y177082D01*
X154003Y177697D01*
Y182224D01*
X153881Y182839D01*
X153533Y183360D01*
X153012Y183708D01*
X152398Y183830D01*
X147083D01*
X146468Y183708D01*
X145947Y183360D01*
X143914Y184214D01*
X143378Y184626D01*
X142037Y185181D01*
X140598Y185370D01*
X139160Y185181D01*
X137819Y184626D01*
X136667Y183742D01*
X135784Y182591D01*
X135229Y181250D01*
X135039Y179811D01*
X135229Y178372D01*
X135784Y177031D01*
X136667Y175880D01*
X137819Y174996D01*
X139160Y174441D01*
X140598Y174252D01*
X142037Y174441D01*
X143378Y174996D01*
X145477Y173878D01*
Y170807D01*
X145599Y170193D01*
X145947Y169672D01*
X146468Y169324D01*
X147083Y169201D01*
X150988D01*
X151962Y167960D01*
X151035Y165877D01*
X110814D01*
X110400Y166422D01*
X109803Y167944D01*
X109881Y168082D01*
X110003Y168697D01*
Y173224D01*
X109881Y173839D01*
X109533Y174360D01*
X110411Y176377D01*
X110913Y177031D01*
X111468Y178372D01*
X111658Y179811D01*
X111468Y181250D01*
X110913Y182591D01*
X110029Y183742D01*
X108878Y184626D01*
X107537Y185181D01*
X106098Y185370D01*
X104660Y185181D01*
X103319Y184626D01*
X102167Y183742D01*
X101284Y182591D01*
X100728Y181250D01*
X100539Y179811D01*
X100728Y178372D01*
X101284Y177031D01*
X101630Y176581D01*
X101947Y174360D01*
X101599Y173839D01*
X101477Y173224D01*
Y168697D01*
X101599Y168082D01*
X101921Y167516D01*
X101599Y166949D01*
X101477Y166335D01*
Y161807D01*
X101599Y161193D01*
X101929Y160698D01*
X101947Y160672D01*
X102275Y158818D01*
X102192Y158171D01*
X102167Y158151D01*
X101284Y157000D01*
X100728Y155659D01*
X100539Y154220D01*
X100728Y152782D01*
X101284Y151441D01*
X102167Y150289D01*
X103319Y149406D01*
X104659Y148851D01*
X104549Y146685D01*
X103963Y146293D01*
X95463Y137793D01*
X95071Y137207D01*
X94934Y136516D01*
Y134881D01*
X94358Y134643D01*
X93371Y133885D01*
X92613Y132898D01*
X92601Y132868D01*
X91068Y132690D01*
X90225Y132791D01*
X89700Y133475D01*
X88833Y134140D01*
X87823Y134558D01*
X87240Y134635D01*
Y130516D01*
Y126396D01*
X87823Y126473D01*
X88833Y126891D01*
X89700Y127556D01*
X90225Y128241D01*
X91068Y128341D01*
X92601Y128163D01*
X92613Y128133D01*
X93371Y127146D01*
X94358Y126389D01*
X94434Y126357D01*
Y122960D01*
X93977Y122553D01*
X92421Y121590D01*
X91825Y121590D01*
X91740D01*
Y117421D01*
Y113252D01*
X92420D01*
X92835Y113251D01*
X93138Y112987D01*
X92325Y110822D01*
X88988D01*
X87517Y112293D01*
X86931Y112685D01*
X86240Y112822D01*
X84054D01*
Y113673D01*
X83932Y114288D01*
X83584Y114809D01*
X83063Y115157D01*
X82449Y115279D01*
X77921D01*
X77307Y115157D01*
X76740Y114835D01*
X76174Y115157D01*
X75559Y115279D01*
X71031D01*
X70417Y115157D01*
X69896Y114809D01*
X69548Y114288D01*
X69426Y113673D01*
Y109701D01*
X68224Y108499D01*
X65471D01*
X65261Y108812D01*
X65146Y108890D01*
Y109342D01*
X59598D01*
X54051D01*
Y108890D01*
X53935Y108812D01*
X53587Y108291D01*
X53465Y107677D01*
Y105709D01*
X53583Y105118D01*
X53465Y104527D01*
Y102559D01*
X53583Y101968D01*
X53526Y101683D01*
X52831Y101189D01*
X51300Y100799D01*
X50946Y101035D01*
X50946Y101035D01*
X50367Y101275D01*
X49676Y101413D01*
X49517D01*
X49362Y101444D01*
X49207Y101413D01*
X49049D01*
X48358Y101275D01*
X47779Y101035D01*
X47193Y100644D01*
X47193Y100644D01*
X46750Y100201D01*
X46750Y100201D01*
X46358Y99615D01*
X46358Y99615D01*
X46119Y99036D01*
X45981Y98345D01*
Y97718D01*
X46119Y97027D01*
X46358Y96448D01*
X46750Y95862D01*
X46750Y95862D01*
X47193Y95419D01*
X47193Y95419D01*
X47779Y95028D01*
X47779Y95028D01*
X48358Y94788D01*
X49049Y94650D01*
X49207D01*
X49362Y94620D01*
X49517Y94650D01*
X49676D01*
X50367Y94788D01*
X50946Y95028D01*
X51531Y95419D01*
X51532Y95419D01*
X51974Y95862D01*
X51975Y95862D01*
X52366Y96448D01*
X52366Y96448D01*
X52513Y96802D01*
X53949Y97633D01*
X54330Y97805D01*
X54909Y97836D01*
X55071Y97804D01*
X64126D01*
X65689Y96484D01*
X65926Y96122D01*
X65946Y95947D01*
X65870Y95437D01*
X64126Y94130D01*
X59705D01*
Y89173D01*
Y84217D01*
X64126D01*
X64268Y84245D01*
X64948Y84068D01*
X66064Y83483D01*
X66434Y83170D01*
Y80264D01*
X62947Y76777D01*
X62556Y76191D01*
X62418Y75500D01*
Y74645D01*
X59992D01*
X59378Y74523D01*
X58422Y74263D01*
X57146Y74521D01*
X56820Y74728D01*
X56603Y74873D01*
X55988Y74995D01*
X49492D01*
X48878Y74873D01*
X48357Y74525D01*
X48140Y74201D01*
X46990Y74097D01*
X45840Y74201D01*
X45624Y74525D01*
X45103Y74873D01*
X44488Y74995D01*
X37992D01*
X37378Y74873D01*
X36857Y74525D01*
X36509Y74004D01*
X36386Y73390D01*
Y68665D01*
X36509Y68051D01*
X36857Y67530D01*
X37378Y67182D01*
X37992Y67060D01*
X42653D01*
X44162Y65551D01*
X43265Y63386D01*
X41740D01*
Y60004D01*
Y56622D01*
X44488D01*
X44878Y56700D01*
X45209Y56921D01*
X45430Y57252D01*
X45508Y57642D01*
Y58198D01*
X48472D01*
Y57642D01*
X48550Y57252D01*
X48771Y56921D01*
X49102Y56700D01*
X49492Y56622D01*
X52240D01*
Y60004D01*
X53240D01*
Y56622D01*
X53567D01*
X58506Y51683D01*
X58973Y51372D01*
Y50992D01*
X59050Y50602D01*
X59271Y50271D01*
X59602Y50050D01*
X59992Y49973D01*
X63724D01*
Y52961D01*
X64724D01*
Y49973D01*
X68457D01*
X68847Y50050D01*
X69178Y50271D01*
X69399Y50602D01*
X69476Y50992D01*
Y52697D01*
X77517Y60738D01*
X77909Y61325D01*
X78047Y62016D01*
Y81016D01*
X77909Y81707D01*
X77517Y82293D01*
X75367Y84443D01*
X75456Y86425D01*
X77365Y87363D01*
X77921Y87253D01*
X82449D01*
X83063Y87375D01*
X83584Y87723D01*
X83932Y88244D01*
X84054Y88858D01*
Y89772D01*
X84431Y89847D01*
X85017Y90238D01*
X86752Y91973D01*
X87184Y92104D01*
X88825Y92046D01*
X89434Y91593D01*
Y89264D01*
X85979Y85809D01*
X85587Y85223D01*
X85449Y84531D01*
Y70019D01*
X83024D01*
X82409Y69897D01*
X81888Y69549D01*
X81540Y69028D01*
X81418Y68413D01*
Y55618D01*
X81540Y55004D01*
X81888Y54483D01*
X82409Y54135D01*
X83024Y54013D01*
X91488D01*
X92103Y54135D01*
X92624Y54483D01*
X92713Y54617D01*
X94574Y54376D01*
X94879Y54257D01*
Y41571D01*
X95016Y40880D01*
X95408Y40294D01*
X100776Y34926D01*
Y34421D01*
X104740D01*
Y37303D01*
X103507D01*
X99696Y41114D01*
X99818Y41571D01*
X101181Y43265D01*
X101795Y43142D01*
X108685D01*
X109300Y43265D01*
X109820Y43613D01*
X110169Y44134D01*
X110291Y44748D01*
Y45304D01*
X111240D01*
X111931Y45441D01*
X112335Y45711D01*
X113078Y45559D01*
X114574Y44827D01*
X114642Y43945D01*
X108000Y37303D01*
X105740D01*
Y33921D01*
Y30540D01*
X108685D01*
X109075Y30617D01*
X109406Y30838D01*
X109627Y31169D01*
X109705Y31559D01*
Y33898D01*
X117240Y41434D01*
Y44488D01*
X118240D01*
Y41434D01*
X126380Y33294D01*
X126966Y32902D01*
X127657Y32765D01*
X128063D01*
Y32307D01*
X128141Y31917D01*
X128362Y31586D01*
X128692Y31365D01*
X129083Y31288D01*
X131240D01*
Y34571D01*
X132240D01*
Y31288D01*
X134398D01*
X134788Y31365D01*
X135119Y31586D01*
X135340Y31917D01*
X135417Y32307D01*
X137563D01*
X137641Y31917D01*
X137862Y31586D01*
X138192Y31365D01*
X138583Y31288D01*
X140740D01*
Y34571D01*
X141740D01*
Y31288D01*
X143898D01*
X144288Y31365D01*
X144619Y31586D01*
X144840Y31917D01*
X144917Y32307D01*
Y32765D01*
X147563D01*
Y32307D01*
X147641Y31917D01*
X147862Y31586D01*
X148193Y31365D01*
X148583Y31288D01*
X150740D01*
Y34571D01*
X151740D01*
Y31288D01*
X153898D01*
X154288Y31365D01*
X154619Y31586D01*
X154840Y31917D01*
X154917Y32307D01*
Y32765D01*
X158512D01*
Y31858D01*
X158589Y31468D01*
X158810Y31137D01*
X159141Y30916D01*
X159531Y30839D01*
X161295D01*
Y34516D01*
X162295D01*
Y30839D01*
X164059D01*
X164449Y30916D01*
X165286Y30723D01*
X165807Y30375D01*
X166421Y30253D01*
X170949D01*
X171563Y30375D01*
X172084Y30723D01*
X172368Y31148D01*
X173445Y31303D01*
X173707Y31318D01*
X174634Y31214D01*
X174880Y30845D01*
X175401Y30497D01*
X176016Y30375D01*
X180543D01*
X181158Y30497D01*
X181724Y30819D01*
X182291Y30497D01*
X182905Y30375D01*
X187433D01*
X188048Y30497D01*
X188568Y30845D01*
X188917Y31366D01*
X189039Y31980D01*
Y35704D01*
X189939Y36262D01*
X191204Y36629D01*
X191401Y36497D01*
X192016Y36375D01*
X196543D01*
X197158Y36497D01*
X197724Y36819D01*
X198291Y36497D01*
X198906Y36375D01*
X203433D01*
X204047Y36497D01*
X204569Y36845D01*
X204917Y37366D01*
X205039Y37980D01*
Y41953D01*
X207447Y44361D01*
X207838Y44947D01*
X207976Y45638D01*
Y52070D01*
X219528Y63622D01*
X221740D01*
Y67004D01*
X222240D01*
Y67504D01*
X226508D01*
Y69366D01*
X228050Y70591D01*
X228280Y70709D01*
X237870D01*
X238561Y70847D01*
X239147Y71238D01*
X249278Y81369D01*
X250264Y81215D01*
X251444Y80594D01*
Y59580D01*
X237790D01*
X237744Y59589D01*
Y59603D01*
X234898Y59416D01*
X232101Y58860D01*
X229399Y57943D01*
X226841Y56681D01*
X224469Y55097D01*
X222325Y53216D01*
X220444Y51071D01*
X218860Y48700D01*
X217598Y46141D01*
X216681Y43440D01*
X216125Y40643D01*
X215938Y37796D01*
X215952D01*
X216010Y37501D01*
Y34364D01*
Y27498D01*
Y25722D01*
X30446D01*
Y83087D01*
X32612Y84220D01*
X32630Y84217D01*
X37051D01*
Y89173D01*
Y94130D01*
X32630D01*
X32612Y94126D01*
X30446Y95260D01*
Y118126D01*
X32612Y119260D01*
X32630Y119256D01*
X37051D01*
Y124213D01*
Y129169D01*
X32630D01*
X32612Y129166D01*
X30446Y130299D01*
Y153018D01*
X42578D01*
X42618Y153010D01*
Y152998D01*
X45413Y153181D01*
X48160Y153727D01*
X50812Y154627D01*
X53324Y155866D01*
X55653Y157422D01*
X57759Y159269D01*
X59605Y161375D01*
X61161Y163704D01*
X62400Y166215D01*
X63301Y168868D01*
X63847Y171615D01*
X64030Y174409D01*
X64017D01*
X64009Y174450D01*
Y187664D01*
X251444D01*
Y122083D01*
D02*
G37*
%LPC*%
G36*
X42472Y94130D02*
X38051D01*
Y89673D01*
X43492D01*
Y93110D01*
X43414Y93500D01*
X43193Y93831D01*
X42863Y94052D01*
X42472Y94130D01*
D02*
G37*
G36*
X90740Y121590D02*
X90059D01*
X89669Y121513D01*
X89338Y121292D01*
X89117Y120961D01*
X89039Y120571D01*
Y117921D01*
X90740D01*
Y121590D01*
D02*
G37*
G36*
X43492Y123713D02*
X38051D01*
Y119256D01*
X42472D01*
X42863Y119334D01*
X43193Y119555D01*
X43414Y119885D01*
X43492Y120276D01*
Y123713D01*
D02*
G37*
G36*
X90740Y116921D02*
X89039D01*
Y114272D01*
X89117Y113882D01*
X89338Y113551D01*
X89669Y113330D01*
X90059Y113252D01*
X90740D01*
Y116921D01*
D02*
G37*
G36*
X65146Y123713D02*
X59205D01*
X53264D01*
Y120276D01*
X53342Y119885D01*
X53562Y119555D01*
X53893Y119334D01*
X54283Y119256D01*
X57792D01*
Y114996D01*
X55071D01*
X54874Y114957D01*
X54180Y115112D01*
X54128Y115132D01*
X53161Y115615D01*
X52680Y115987D01*
X52606Y116358D01*
X52366Y116937D01*
X51975Y117523D01*
X51974Y117523D01*
X51532Y117966D01*
X51531Y117966D01*
X50946Y118358D01*
X50946Y118358D01*
X50367Y118598D01*
X49676Y118735D01*
X49517D01*
X49362Y118766D01*
X49207Y118735D01*
X49049D01*
X48358Y118598D01*
X47779Y118358D01*
X47193Y117966D01*
X47193Y117966D01*
X46750Y117523D01*
X46750Y117523D01*
X46358Y116937D01*
X46358Y116937D01*
X46119Y116358D01*
X45981Y115667D01*
Y115041D01*
X46119Y114349D01*
X46358Y113771D01*
X46750Y113185D01*
X46750Y113185D01*
X47193Y112742D01*
X47193Y112742D01*
X47779Y112350D01*
X47779Y112350D01*
X48358Y112110D01*
X49049Y111973D01*
X49207D01*
X49362Y111942D01*
X49517Y111973D01*
X49676D01*
X50367Y112110D01*
X50946Y112350D01*
X51532Y112742D01*
X53566Y111926D01*
X54129Y111217D01*
X54051Y110827D01*
Y110342D01*
X59598D01*
X65146D01*
Y110827D01*
X65068Y111217D01*
X64934Y111417D01*
X65068Y111618D01*
X65146Y112008D01*
Y112492D01*
X59598D01*
Y113492D01*
X65146D01*
Y113976D01*
X65068Y114366D01*
X64847Y114697D01*
X64516Y114918D01*
X64126Y114996D01*
X61405D01*
Y119256D01*
X64126D01*
X64516Y119334D01*
X64847Y119555D01*
X65068Y119885D01*
X65146Y120276D01*
Y123713D01*
D02*
G37*
G36*
X40740Y59504D02*
X36972D01*
Y57642D01*
X37050Y57252D01*
X37271Y56921D01*
X37602Y56700D01*
X37992Y56622D01*
X40740D01*
Y59504D01*
D02*
G37*
G36*
Y63386D02*
X37992D01*
X37602Y63308D01*
X37271Y63087D01*
X37050Y62756D01*
X36972Y62366D01*
Y60504D01*
X40740D01*
Y63386D01*
D02*
G37*
G36*
X104740Y33421D02*
X100776D01*
Y31559D01*
X100853Y31169D01*
X101074Y30838D01*
X101405Y30617D01*
X101795Y30540D01*
X104740D01*
Y33421D01*
D02*
G37*
G36*
X42618Y44365D02*
X42514Y44344D01*
X42408Y44351D01*
X41124Y44182D01*
X40925Y44114D01*
X40719Y44073D01*
X39522Y43577D01*
X39347Y43461D01*
X39159Y43368D01*
X38131Y42579D01*
X37992Y42421D01*
X37834Y42283D01*
X37045Y41255D01*
X36953Y41066D01*
X36836Y40892D01*
X36340Y39694D01*
X36299Y39488D01*
X36232Y39290D01*
X36062Y38005D01*
X36076Y37795D01*
X36062Y37586D01*
X36232Y36301D01*
X36299Y36102D01*
X36340Y35896D01*
X36836Y34699D01*
X36953Y34524D01*
X37045Y34336D01*
X37834Y33308D01*
X37992Y33169D01*
X38131Y33011D01*
X39159Y32223D01*
X39347Y32130D01*
X39522Y32013D01*
X40719Y31517D01*
X40925Y31476D01*
X41124Y31409D01*
X42408Y31240D01*
X42514Y31247D01*
X42618Y31226D01*
X42722Y31247D01*
X42828Y31240D01*
X44112Y31409D01*
X44311Y31476D01*
X44517Y31517D01*
X45714Y32013D01*
X45889Y32130D01*
X46077Y32223D01*
X47106Y33011D01*
X47244Y33169D01*
X47402Y33308D01*
X48191Y34336D01*
X48284Y34524D01*
X48400Y34699D01*
X48896Y35896D01*
X48937Y36102D01*
X49005Y36301D01*
X49174Y37586D01*
X49160Y37795D01*
X49174Y38005D01*
X49005Y39290D01*
X48937Y39488D01*
X48896Y39694D01*
X48400Y40892D01*
X48284Y41066D01*
X48191Y41255D01*
X47402Y42283D01*
X47244Y42421D01*
X47106Y42579D01*
X46077Y43368D01*
X45889Y43461D01*
X45714Y43577D01*
X44517Y44073D01*
X44311Y44114D01*
X44112Y44182D01*
X42828Y44351D01*
X42722Y44344D01*
X42618Y44365D01*
D02*
G37*
G36*
X58705Y88673D02*
X53264D01*
Y85236D01*
X53342Y84846D01*
X53562Y84515D01*
X53893Y84294D01*
X54283Y84217D01*
X58705D01*
Y88673D01*
D02*
G37*
G36*
Y94130D02*
X54283D01*
X53893Y94052D01*
X53562Y93831D01*
X53342Y93500D01*
X53264Y93110D01*
Y89673D01*
X58705D01*
Y94130D01*
D02*
G37*
G36*
X226508Y66504D02*
X222740D01*
Y63622D01*
X225488D01*
X225878Y63700D01*
X226209Y63921D01*
X226430Y64252D01*
X226508Y64642D01*
Y66504D01*
D02*
G37*
G36*
X43492Y88673D02*
X38051D01*
Y84217D01*
X42472D01*
X42863Y84294D01*
X43193Y84515D01*
X43414Y84846D01*
X43492Y85236D01*
Y88673D01*
D02*
G37*
G36*
X87882Y184725D02*
X87093Y184621D01*
X85892Y184124D01*
X84861Y183332D01*
X84069Y182301D01*
X83572Y181100D01*
X83468Y180311D01*
X87882D01*
Y184725D01*
D02*
G37*
G36*
X122382D02*
X121593Y184621D01*
X120392Y184124D01*
X119361Y183332D01*
X118569Y182301D01*
X118072Y181100D01*
X117968Y180311D01*
X122382D01*
Y184725D01*
D02*
G37*
G36*
X93296Y179311D02*
X88882D01*
Y174897D01*
X89671Y175001D01*
X90872Y175499D01*
X91903Y176290D01*
X92694Y177321D01*
X93192Y178522D01*
X93296Y179311D01*
D02*
G37*
G36*
X127796D02*
X123382D01*
Y174897D01*
X124171Y175001D01*
X125372Y175499D01*
X126403Y176290D01*
X127194Y177321D01*
X127692Y178522D01*
X127796Y179311D01*
D02*
G37*
G36*
X237894Y180979D02*
X237790Y180958D01*
X237684Y180965D01*
X236399Y180796D01*
X236201Y180728D01*
X235995Y180687D01*
X234797Y180192D01*
X234623Y180075D01*
X234434Y179982D01*
X233406Y179193D01*
X233268Y179035D01*
X233110Y178897D01*
X232321Y177869D01*
X232228Y177680D01*
X232112Y177506D01*
X231616Y176309D01*
X231575Y176103D01*
X231507Y175904D01*
X231338Y174619D01*
X231352Y174409D01*
X231338Y174200D01*
X231507Y172915D01*
X231575Y172716D01*
X231616Y172510D01*
X232112Y171313D01*
X232228Y171139D01*
X232321Y170950D01*
X233110Y169922D01*
X233268Y169784D01*
X233406Y169626D01*
X234434Y168837D01*
X234623Y168744D01*
X234797Y168627D01*
X235995Y168131D01*
X236201Y168090D01*
X236399Y168023D01*
X237684Y167854D01*
X237790Y167861D01*
X237894Y167840D01*
X237998Y167861D01*
X238103Y167854D01*
X239388Y168023D01*
X239587Y168090D01*
X239793Y168131D01*
X240990Y168627D01*
X241165Y168744D01*
X241353Y168837D01*
X242381Y169626D01*
X242519Y169784D01*
X242677Y169922D01*
X243466Y170950D01*
X243559Y171139D01*
X243676Y171313D01*
X244172Y172510D01*
X244213Y172716D01*
X244280Y172915D01*
X244449Y174200D01*
X244436Y174409D01*
X244449Y174619D01*
X244280Y175904D01*
X244213Y176103D01*
X244172Y176309D01*
X243676Y177506D01*
X243559Y177680D01*
X243466Y177869D01*
X242677Y178897D01*
X242519Y179035D01*
X242381Y179193D01*
X241353Y179982D01*
X241165Y180075D01*
X240990Y180192D01*
X239793Y180687D01*
X239587Y180728D01*
X239388Y180796D01*
X238103Y180965D01*
X237998Y180958D01*
X237894Y180979D01*
D02*
G37*
G36*
X167740Y184244D02*
X165583D01*
X165192Y184166D01*
X164862Y183945D01*
X164641Y183615D01*
X164563Y183224D01*
Y181461D01*
X167740D01*
Y184244D01*
D02*
G37*
G36*
X88882Y184725D02*
Y180311D01*
X93296D01*
X93192Y181100D01*
X92694Y182301D01*
X91903Y183332D01*
X90872Y184124D01*
X89671Y184621D01*
X88882Y184725D01*
D02*
G37*
G36*
X123382D02*
Y180311D01*
X127796D01*
X127692Y181100D01*
X127194Y182301D01*
X126403Y183332D01*
X125372Y184124D01*
X124171Y184621D01*
X123382Y184725D01*
D02*
G37*
G36*
X64126Y129169D02*
X59705D01*
Y124713D01*
X65146D01*
Y128150D01*
X65068Y128540D01*
X64847Y128871D01*
X64516Y129092D01*
X64126Y129169D01*
D02*
G37*
G36*
X86240Y130016D02*
X82621D01*
X82697Y129432D01*
X83116Y128423D01*
X83781Y127556D01*
X84648Y126891D01*
X85657Y126473D01*
X86240Y126396D01*
Y130016D01*
D02*
G37*
G36*
X58705Y129169D02*
X54283D01*
X53893Y129092D01*
X53562Y128871D01*
X53342Y128540D01*
X53264Y128150D01*
Y124713D01*
X58705D01*
Y129169D01*
D02*
G37*
G36*
X42472D02*
X38051D01*
Y124713D01*
X43492D01*
Y128150D01*
X43414Y128540D01*
X43193Y128871D01*
X42863Y129092D01*
X42472Y129169D01*
D02*
G37*
G36*
X87882Y179311D02*
X83468D01*
X83572Y178522D01*
X84069Y177321D01*
X84861Y176290D01*
X85892Y175499D01*
X87093Y175001D01*
X87882Y174897D01*
Y179311D01*
D02*
G37*
G36*
X122382D02*
X117968D01*
X118072Y178522D01*
X118569Y177321D01*
X119361Y176290D01*
X120392Y175499D01*
X121593Y175001D01*
X122382Y174897D01*
Y179311D01*
D02*
G37*
G36*
X86240Y134635D02*
X85657Y134558D01*
X84648Y134140D01*
X83781Y133475D01*
X83116Y132608D01*
X82697Y131599D01*
X82621Y131016D01*
X86240D01*
Y134635D01*
D02*
G37*
G36*
X88382Y159780D02*
X86943Y159590D01*
X85602Y159035D01*
X84451Y158151D01*
X83567Y157000D01*
X83012Y155659D01*
X82823Y154220D01*
X83012Y152782D01*
X83567Y151441D01*
X84451Y150289D01*
X85602Y149406D01*
X86943Y148851D01*
X88382Y148661D01*
X89821Y148851D01*
X91162Y149406D01*
X92313Y150289D01*
X93196Y151441D01*
X93752Y152782D01*
X93941Y154220D01*
X93752Y155659D01*
X93196Y157000D01*
X92313Y158151D01*
X91162Y159035D01*
X89821Y159590D01*
X88382Y159780D01*
D02*
G37*
%LPD*%
D10*
X222240Y78028D02*
D03*
Y67004D02*
D03*
X217240Y129504D02*
D03*
Y140528D02*
D03*
X177740Y100528D02*
D03*
Y89504D02*
D03*
X131740Y78528D02*
D03*
Y67504D02*
D03*
X52740Y71028D02*
D03*
Y60004D02*
D03*
X41240Y71028D02*
D03*
Y60004D02*
D03*
X151740Y88504D02*
D03*
Y99528D02*
D03*
D11*
X215752Y102362D02*
D03*
X204728D02*
D03*
D12*
X211240Y151571D02*
D03*
Y158461D02*
D03*
X185240Y180961D02*
D03*
Y174071D02*
D03*
X149740Y173071D02*
D03*
Y179961D02*
D03*
X105740Y164071D02*
D03*
Y170961D02*
D03*
X116240Y127571D02*
D03*
Y134461D02*
D03*
X142240Y127571D02*
D03*
Y134461D02*
D03*
X125740Y127571D02*
D03*
Y134461D02*
D03*
X161240Y56961D02*
D03*
Y50071D02*
D03*
X142240Y78461D02*
D03*
Y71571D02*
D03*
X131740Y41461D02*
D03*
Y34571D02*
D03*
X151740Y71571D02*
D03*
Y78461D02*
D03*
X161240D02*
D03*
Y71571D02*
D03*
X141240Y34571D02*
D03*
Y41461D02*
D03*
X151240D02*
D03*
Y34571D02*
D03*
X201740Y78071D02*
D03*
Y84961D02*
D03*
X168240Y180961D02*
D03*
Y174071D02*
D03*
D13*
X73295Y91516D02*
D03*
X80185D02*
D03*
X73295Y101516D02*
D03*
X80185D02*
D03*
X73295Y111016D02*
D03*
X80185D02*
D03*
X194280Y58638D02*
D03*
X201169D02*
D03*
Y40638D02*
D03*
X194280D02*
D03*
X201169Y49638D02*
D03*
X194280D02*
D03*
X178279Y34638D02*
D03*
X185169D02*
D03*
X161795Y34516D02*
D03*
X168685D02*
D03*
X201169Y67638D02*
D03*
X194280D02*
D03*
X170780Y78138D02*
D03*
X177669D02*
D03*
X230795Y138516D02*
D03*
X237685D02*
D03*
D14*
X156240Y153016D02*
D03*
X174724Y66638D02*
D03*
X184724D02*
D03*
X169724D02*
D03*
X179724D02*
D03*
X174724Y45378D02*
D03*
X179724D02*
D03*
X169724D02*
D03*
X184724D02*
D03*
D15*
X161240Y153016D02*
D03*
X176240D02*
D03*
X166240D02*
D03*
X181240D02*
D03*
X171240D02*
D03*
X201240D02*
D03*
X191240D02*
D03*
X186240D02*
D03*
X196240D02*
D03*
X201240Y116008D02*
D03*
X171240D02*
D03*
X156240D02*
D03*
X166240D02*
D03*
X181240D02*
D03*
X191240D02*
D03*
X161240D02*
D03*
X176240D02*
D03*
X186240D02*
D03*
X196240D02*
D03*
D16*
X37551Y124213D02*
D03*
Y89173D02*
D03*
X59205D02*
D03*
Y124213D02*
D03*
D17*
X59598Y100394D02*
D03*
Y103543D02*
D03*
Y106693D02*
D03*
Y109842D02*
D03*
Y112992D02*
D03*
D18*
X91240Y117421D02*
D03*
D19*
X96240D02*
D03*
X101240D02*
D03*
X106240D02*
D03*
X111240D02*
D03*
X116240D02*
D03*
X121240D02*
D03*
X126240D02*
D03*
X91240Y95965D02*
D03*
X96240D02*
D03*
X101240D02*
D03*
X106240D02*
D03*
X111240D02*
D03*
X116240D02*
D03*
X121240D02*
D03*
X126240D02*
D03*
D20*
X105240Y71516D02*
D03*
Y58327D02*
D03*
X151240Y49921D02*
D03*
Y63110D02*
D03*
X105240Y47110D02*
D03*
Y33921D02*
D03*
D21*
X120980Y61488D02*
D03*
X113500D02*
D03*
X117240Y70543D02*
D03*
X114000Y53543D02*
D03*
X121480D02*
D03*
X117740Y44488D02*
D03*
D22*
X87256Y62016D02*
D03*
D23*
X64224Y71071D02*
D03*
Y62016D02*
D03*
Y52961D02*
D03*
D24*
X248240Y82886D02*
Y119791D01*
X237870Y72516D02*
X248240Y82886D01*
X213740Y72516D02*
X237870D01*
X215748Y101181D02*
X217413Y99516D01*
X220236Y96693D02*
X231339D01*
X217413Y99516D02*
X220236Y96693D01*
X217413Y99516D02*
X217413D01*
X198882Y96516D02*
X204728Y102362D01*
X167740Y96516D02*
X198882D01*
X237685Y138516D02*
Y157591D01*
X210740Y178016D02*
X217260D01*
X237685Y157591D01*
X87240Y105016D02*
X110240D01*
X83740Y101516D02*
X87240Y105016D01*
X80185Y101516D02*
X83740D01*
X89240Y102016D02*
X138740D01*
X83740Y96516D02*
X89240Y102016D01*
X78014Y96516D02*
X83740D01*
X73295Y91797D02*
X78014Y96516D01*
X73295Y83961D02*
Y91797D01*
X152713Y134461D02*
X163185D01*
X142240D02*
X152713D01*
X138740Y102016D02*
X144240Y107516D01*
Y116516D01*
X152713Y124988D01*
Y134461D01*
X211240Y158461D02*
Y158516D01*
Y156961D02*
Y158461D01*
X210740Y159016D02*
X211240Y158516D01*
X210740Y159016D02*
Y168016D01*
X105740Y164071D02*
X153685D01*
X171240Y153016D02*
Y157516D01*
X168240Y160516D02*
X171240Y157516D01*
X157240Y160516D02*
X168240D01*
X153685Y164071D02*
X157240Y160516D01*
X105740Y170961D02*
X106098Y171319D01*
Y179811D01*
X159685Y163571D02*
X172185D01*
X150185Y173071D02*
X159685Y163571D01*
X149740Y173071D02*
X150185D01*
X149591Y179811D02*
X149740Y179961D01*
X140598Y179811D02*
X149591D01*
X176240Y153016D02*
Y159516D01*
X172185Y163571D02*
X176240Y159516D01*
X167240Y173571D02*
X168240D01*
X173295Y174071D02*
X177240Y178016D01*
X168240Y174071D02*
X173295D01*
X185240D02*
X190045D01*
X193990Y178016D01*
X177240Y168016D02*
X183240D01*
X191240Y160016D01*
Y153016D02*
Y160016D01*
X193990Y162266D02*
Y168016D01*
Y162266D02*
X196240Y160016D01*
Y153016D02*
Y160016D01*
X227740Y152516D02*
X230795Y149461D01*
X155740Y152516D02*
X156240Y153016D01*
X149740Y152516D02*
X155740D01*
X138752Y85528D02*
X142740Y89516D01*
X138740Y85528D02*
X138752D01*
X131740Y78528D02*
X138740Y85528D01*
X176240Y109516D02*
Y116008D01*
X172240Y105516D02*
X176240Y109516D01*
X168740Y105516D02*
X172240D01*
X141752Y99528D02*
X151740D01*
X131240Y89016D02*
X141752Y99528D01*
X91740Y89016D02*
X131240D01*
X208185Y78071D02*
X213740Y72516D01*
X184724Y78016D02*
Y91516D01*
Y66638D02*
Y78016D01*
X184780Y78071D01*
X201740D01*
X208185D01*
X241339Y84614D02*
Y86693D01*
X234740Y78016D02*
X241339Y84614D01*
X215740Y78016D02*
X234740D01*
X241339Y86693D02*
Y96693D01*
X208795Y84961D02*
X215740Y78016D01*
X201740Y84961D02*
X208795D01*
X191240Y91516D02*
X195185D01*
X201740Y84961D01*
X185240Y101516D02*
X191240D01*
X184252Y100528D02*
X185240Y101516D01*
X177740Y100528D02*
X184252D01*
X76240Y62016D02*
Y81016D01*
X67185Y52961D02*
X76240Y62016D01*
X64224Y52961D02*
X67185D01*
X73295Y83961D02*
X76240Y81016D01*
X59598Y109842D02*
Y112992D01*
X59205Y124213D02*
X59598Y123819D01*
Y112992D02*
Y123819D01*
X151740Y78461D02*
Y88504D01*
X241339Y126693D02*
X248240Y119791D01*
X151740Y99528D02*
X157728D01*
X163240Y94016D01*
X156240Y114016D02*
Y116008D01*
X151740Y109516D02*
X156240Y114016D01*
X151740Y99528D02*
Y109516D01*
X68240Y79516D02*
Y97516D01*
X65362Y100394D02*
X68240Y97516D01*
X59598Y100394D02*
X65362D01*
X64224Y75500D02*
X68240Y79516D01*
X64224Y71071D02*
Y75500D01*
X59784Y52961D02*
X64224D01*
X52740Y60004D02*
X59784Y52961D01*
X41240Y60004D02*
X52740D01*
X41240Y71028D02*
X46752Y65516D01*
X58240D01*
X61740Y62016D01*
X64224D01*
X64181Y71028D02*
X64224Y71071D01*
X52740Y71028D02*
X64181D01*
X88189Y95965D02*
X91240D01*
X83740Y91516D02*
X88189Y95965D01*
X80185Y91516D02*
X83740D01*
X88240Y109016D02*
X108240D01*
X86240Y111016D02*
X88240Y109016D01*
X80185Y111016D02*
X86240D01*
X108240Y109016D02*
X111240Y112016D01*
X110240Y105016D02*
X116240Y111016D01*
X87256Y84531D02*
X91240Y88516D01*
X87256Y64031D02*
Y84531D01*
X91240Y88516D02*
Y95965D01*
X87256Y62016D02*
Y64031D01*
X161240Y103016D02*
X167740Y96516D01*
X161240Y103016D02*
Y116008D01*
X230795Y138516D02*
Y149461D01*
X225240Y138516D02*
X230795D01*
X223228Y140528D02*
X225240Y138516D01*
X217240Y140528D02*
X223228D01*
X217240Y114516D02*
Y129504D01*
X176240Y127016D02*
X201740D01*
X171240Y122016D02*
X176240Y127016D01*
X171240Y116008D02*
Y122016D01*
X201740Y127016D02*
X210240Y118516D01*
X166240Y116008D02*
Y123516D01*
X177740Y135016D01*
X223016D01*
X231339Y126693D01*
X151240Y59516D02*
Y63110D01*
X148740Y57016D02*
X151240Y59516D01*
X145240Y57016D02*
X148740D01*
X141740Y53516D02*
X145240Y57016D01*
X142240Y64016D02*
Y71571D01*
X131740Y53516D02*
X142240Y64016D01*
X141740Y51461D02*
Y53516D01*
X237685Y138516D02*
X241339Y134862D01*
Y126693D02*
Y134862D01*
X206185Y151571D02*
X211240D01*
X204740Y153016D02*
X206185Y151571D01*
X201240Y153016D02*
X204740D01*
X182224Y94016D02*
X184724Y91516D01*
X163240Y94016D02*
X182224D01*
X125724Y61488D02*
X131740Y67504D01*
X120980Y61488D02*
X125724D01*
X216563Y86693D02*
X231339D01*
X210240Y93016D02*
X216563Y86693D01*
X210240Y93016D02*
Y118516D01*
X186240Y109028D02*
Y116008D01*
X177740Y100528D02*
X186240Y109028D01*
X177669Y78138D02*
Y89433D01*
X177740Y89504D01*
X217240Y114516D02*
X225063Y106693D01*
X231339D01*
X161240Y147516D02*
Y153016D01*
X158740Y145016D02*
X161240Y147516D01*
X105240Y145016D02*
X158740D01*
X96740Y136516D02*
X105240Y145016D01*
X96740Y130516D02*
Y136516D01*
X160740Y140516D02*
X166240Y146016D01*
X110240Y140516D02*
X160740D01*
X106740Y137016D02*
X110240Y140516D01*
X170740Y142016D02*
X198240D01*
X163185Y134461D02*
X170740Y142016D01*
X166240Y146016D02*
Y153016D01*
X106740Y130516D02*
Y137016D01*
X94740Y71516D02*
X105240D01*
X87256Y64031D02*
X94740Y71516D01*
X198240Y142016D02*
X201240Y145016D01*
Y153016D01*
X125740Y134461D02*
X142240D01*
X116240D02*
X125740D01*
X141295Y128516D02*
X142240Y127571D01*
X134240Y128516D02*
X141295D01*
X134240Y121016D02*
Y128516D01*
X130646Y117421D02*
X134240Y121016D01*
X126240Y117421D02*
X130646D01*
X121240D02*
Y123071D01*
X125740Y127571D01*
X121240Y112016D02*
Y117421D01*
Y112016D02*
X124425Y108831D01*
X134240D01*
X113185Y124516D02*
X116240Y127571D01*
X108240Y124516D02*
X113185D01*
X106240Y122516D02*
X108240Y124516D01*
X106240Y117421D02*
Y122516D01*
X68972Y106693D02*
X73295Y111016D01*
X59598Y106693D02*
X68972D01*
X59598Y103543D02*
X67213D01*
X69240Y101516D01*
X73295D01*
X107173Y33921D02*
X117740Y44488D01*
X105240Y33921D02*
X107173D01*
X127657Y34571D02*
X131740D01*
X117740Y44488D02*
X127657Y34571D01*
X104335Y33921D02*
X105240D01*
X96685Y41571D02*
X104335Y33921D01*
X113740Y70016D02*
X117740D01*
X112240Y71516D02*
X113740Y70016D01*
X105240Y71516D02*
X112240D01*
X105240Y58516D02*
X111555D01*
X105240Y47110D02*
Y58327D01*
X113240Y49110D02*
X117047D01*
X111240Y47110D02*
X113240Y49110D01*
X105240Y47110D02*
X111240D01*
X135583Y73016D02*
X141028Y78461D01*
X142240D01*
X127240Y73016D02*
X135583D01*
X120240Y66016D02*
X127240Y73016D01*
X100740Y66016D02*
X120240D01*
X96685Y61961D02*
X100740Y66016D01*
X96685Y41571D02*
Y61961D01*
X121480Y53543D02*
X122846D01*
X122874Y53516D01*
X131740D01*
X121417Y60961D02*
X121480D01*
X114000Y53543D02*
X121417Y60961D01*
X117047Y49110D02*
X121480Y53543D01*
X111555Y58516D02*
X114000Y60961D01*
X131740Y34571D02*
X141240D01*
X142240Y78461D02*
X151740D01*
X131740Y41461D02*
X141740Y51461D01*
X166602Y45378D02*
X169724D01*
X161795Y40571D02*
X166602Y45378D01*
X161795Y34516D02*
Y40571D01*
X151740Y78461D02*
X161240D01*
X96240Y130016D02*
X96740Y130516D01*
X96240Y117421D02*
Y130016D01*
X101240Y125016D02*
X106740Y130516D01*
X101240Y117421D02*
Y125016D01*
X116240Y111016D02*
Y117421D01*
X111240Y112016D02*
Y117421D01*
X161091Y49921D02*
X161240Y50071D01*
X151240Y49921D02*
X161091D01*
X151240Y41461D02*
Y49921D01*
X166795Y56961D02*
X174724Y49031D01*
X161240Y56961D02*
X166795D01*
X169102Y66016D02*
X169724Y66638D01*
X157295Y66016D02*
X169102D01*
X151740Y71571D02*
X157295Y66016D01*
X178157Y34516D02*
X178279Y34638D01*
X168685Y34516D02*
X178157D01*
X170780Y77055D02*
Y78138D01*
X165295Y71571D02*
X170780Y77055D01*
X161240Y71571D02*
X165295D01*
X174724Y66638D02*
Y73032D01*
X170780Y76976D02*
X174724Y73032D01*
X170780Y76976D02*
Y78138D01*
X174724Y45378D02*
Y49031D01*
X161740Y34571D02*
X161795Y34516D01*
X151240Y34571D02*
X161740D01*
X141240D02*
X151240D01*
X151091Y51421D02*
X151240Y51571D01*
X141240Y41461D02*
X151240D01*
X177669Y74193D02*
Y78138D01*
Y74193D02*
X179724Y72138D01*
Y66638D02*
Y72138D01*
X188984Y45378D02*
X193724Y40638D01*
X194280D01*
X182724Y58638D02*
X194280D01*
X176724Y53638D02*
X189724D01*
X201169Y67638D02*
X201614D01*
X206169Y63083D01*
Y45638D02*
Y63083D01*
X201169Y40638D02*
X206169Y45638D01*
X179724Y40138D02*
Y45378D01*
X178279Y38693D02*
X179724Y40138D01*
X178279Y34638D02*
Y38693D01*
X184724Y45378D02*
X185169Y44933D01*
Y34638D02*
Y44933D01*
X184724Y45378D02*
X188984D01*
X169724Y60638D02*
Y66638D01*
Y60638D02*
X176724Y53638D01*
X189724D02*
X193724Y49638D01*
X194280D01*
X179724Y61638D02*
Y66638D01*
Y61638D02*
X182724Y58638D01*
X194280Y66583D02*
Y67638D01*
Y66583D02*
X201169Y59693D01*
Y58638D02*
Y59693D01*
Y49638D02*
Y58638D01*
D25*
X177240Y178016D02*
D03*
X193990D02*
D03*
X210740Y168016D02*
D03*
X131740Y53516D02*
D03*
D26*
X177240Y168016D02*
D03*
X193990D02*
D03*
X210740Y178016D02*
D03*
X141740Y53516D02*
D03*
D27*
X134240Y108831D02*
D03*
Y128516D02*
D03*
X96740Y130516D02*
D03*
X86740D02*
D03*
X142740Y89516D02*
D03*
X168740Y105516D02*
D03*
D28*
X49362Y115354D02*
D03*
Y98032D02*
D03*
D29*
X140598Y179811D02*
D03*
Y154220D02*
D03*
X122882Y179811D02*
D03*
Y154220D02*
D03*
X106098Y179811D02*
D03*
Y154220D02*
D03*
X88382Y179811D02*
D03*
Y154220D02*
D03*
X241339Y126693D02*
D03*
X231339Y116693D02*
D03*
X241339D02*
D03*
X231339Y106693D02*
D03*
X241339D02*
D03*
X231339Y96693D02*
D03*
X241339D02*
D03*
X231339Y86693D02*
D03*
X241339D02*
D03*
D30*
X106740Y130516D02*
D03*
D31*
X237894Y174409D02*
D03*
X42618Y37795D02*
D03*
D32*
X231339Y126693D02*
D03*
D33*
X191240Y101516D02*
D03*
D34*
Y91516D02*
D03*
D35*
X149740Y152516D02*
D03*
X227740D02*
D03*
M02*
